<svg width="23" height="23" viewBox="0 0 23 23" fill="none" xmlns="http://www.w3.org/2000/svg">
<path d="M18.4289 14.6242L15.9947 14.3463C15.7085 14.3126 15.4184 14.3443 15.1462 14.4389C14.874 14.5335 14.6268 14.6886 14.4231 14.8925L12.6597 16.6558C9.93922 15.2722 7.72795 13.0609 6.34433 10.3404L8.11724 8.5675C8.52933 8.15542 8.73058 7.58042 8.66349 6.99583L8.38558 4.58083C8.33125 4.11334 8.10689 3.68214 7.75522 3.36935C7.40355 3.05656 6.94914 2.88402 6.47849 2.88458H4.82058C3.73766 2.88458 2.83683 3.78542 2.90391 4.86833C3.41183 13.0525 9.95724 19.5883 18.1318 20.0963C19.2147 20.1633 20.1156 19.2625 20.1156 18.1796V16.5217C20.1252 15.5538 19.3968 14.7392 18.4289 14.6242Z" fill="#009BFF"/>
</svg>
